<svg version="1" xmlns="http://www.w3.org/2000/svg" width="210" height="210" viewBox="0 0 2100 2100"><path d="M605 1920c-61-16-101-40-151-92-81-83-99-126-99-233 0-81 3-94 27-132 64-97 135-154 209-168 49-9 139 9 201 40l51 26 53-36c130-90 204-193 206-288 2-97-24-160-122-292-122-164-167-287-157-432 4-61 14-100 36-150 16-37 34-69 40-71 15-5 38 38 50 97 24 117 89 177 307 285 275 136 465 282 525 402 34 69 34 181 0 247-31 60-113 142-202 202-83 56-243 129-264 121-25-9-17-41 21-77 107-101 167-231 160-345-8-147-115-286-311-404-38-23-103-69-143-101l-73-60 16 38c27 66 77 141 143 216 181 205 209 293 136 434-19 39-72 112-116 164-163 191-162 189-163 304-1 79-4 95-27 130-60 92-130 146-223 170-64 16-84 17-130 5zm-105-194c0-8-7-19-15-26-12-10-15-10-15 3 0 25 11 47 21 41 5-3 9-11 9-18zm171-26c34-55 36-96 8-161-26-61-54-64-81-9-24 46-25 166-2 198 22 32 43 24 75-28z" fill="#fff"/><g fill="#292933"><path d="M466 1748c-19-27-20-50-4-66 9-9 17-7 35 10 28 26 29 40 4 62-18 16-20 16-35-6zM586 1739c-23-26-26-40-26-100 0-75 15-123 48-152 32-29 54-17 85 42 34 68 34 105 1 167-45 82-68 91-108 43z"/></g></svg>
