<svg xmlns="http://www.w3.org/2000/svg" viewBox="0 0 1000 1000">
<path fill="#fff" d="M469.27 100.87c-107.35 13.73-205.47 70.07-270 154.88l-12.91 17h-48.55c-63.92 0-77.03 3.28-99.77 24.79-12.29 11.68-20.08 24.99-24.58 41.79-4.51 17.82-4.71 268.78 0 286.39 4.3 16.59 10.04 27.04 21.72 39.33 21.1 22.54 38.72 27.66 92.39 27.66h38.31l3.48 6.56c5.53 10.86 26.43 40.97 37.9 55.11 15.98 19.67 31.55 35.44 52.03 52.65 135.62 114.1 331.46 125.57 479.37 27.86 48.55-31.96 94.85-80.31 122.92-128.45l7.99-13.73h20.69c34.42 0 56.13-7.99 74.57-27.66 11.68-12.29 17.41-22.74 21.71-39.33 4.71-17.62 4.51-268.57 0-286.39-4.51-16.8-12.29-30.11-24.58-41.79-20.9-19.67-37.7-24.79-82.35-24.79h-31.14l-11.67-15.57c-64.75-86.04-164.1-142.99-273.29-156.51-19.88-2.46-74.78-2.25-94.24.2zM500 204.12v68.63H367.05l6.35-13.93c24.58-52.44 58.18-93.01 92.39-111.24 11.88-6.35 26.02-11.68 31.75-11.88 1.85-.2 2.46 14.75 2.46 68.42zm64.53-58.59c20.69 10.24 39.74 26.02 55.93 46.09 14.14 17.62 31.96 46.71 41.18 67.6l6.15 13.52H534.83V134.87l6.76 1.43c3.48.63 13.93 4.93 22.94 9.23zm-167.78 12.91c-27.66 33.8-48.55 68.63-63.3 105.5l-3.48 8.81h-100.8l8.4-10.04c24.58-29.3 63.92-61.66 99.97-81.94 14.54-8.4 59.82-28.68 63.92-28.89.41 0-1.64 3.08-4.71 6.56zm278.41 10.86c21.1 9.83 46.71 25.2 65.15 39.33 15.16 11.68 45.68 40.77 57.16 54.29l8.19 9.83H704.67l-2.27-6.55c-3.69-10.65-22.94-48.76-32.37-64.12-7.78-12.91-14.75-22.33-32.16-43.63l-5.33-6.76 12.09 4.51c6.56 2.44 20.49 8.39 30.53 13.1zm250.13 143.81c4.51 2.46 11.68 8.19 15.77 12.7 13.73 15.36 13.73 14.75 13.73 156.92 0 146.06.41 142.17-16.39 158.77-17.62 17.82 21.1 16.39-438.4 16.39-459.3 0-420.78 1.43-438.4-16.18-17.21-17.21-16.59-11.27-15.98-163.28.61-125.17.82-133.36 4.51-140.12 7.58-14.55 20.9-25.4 35.03-28.89 3.48-.82 191.95-1.23 418.94-1.23l412.79.41 8.4 4.51zM325.66 715.25c18.44 52.04 36.87 84.81 71.09 126.6l5.53 6.76-11.06-4.3c-76.41-30.11-135-76-178.23-139.51l-8.19-12.09 56.75.41 56.54.61 7.57 21.52zM500 778.75c0 47.32-.82 86.04-1.64 86.04s-7.38-2.05-14.54-4.3c-37.49-12.7-78.26-54.9-105.3-109.4-7.79-15.98-23.97-54.49-23.97-57.36 0-.61 32.78-1.02 72.73-1.02H500v86.04zm180.28-85.22c0 3.28-15.57 40.77-23.56 56.75-27.66 55.52-68.02 97.31-105.71 110.22-7.17 2.25-13.73 4.3-14.55 4.3-.82 0-1.64-38.72-1.64-86.04v-86.04h72.73c39.95-.01 72.73.4 72.73.81zm143.19 8.81c-27.66 40.77-61.87 75.18-100.18 101-23.15 15.78-47.94 28.48-79.49 40.77l-11.06 4.3 5.53-6.56c33.39-40.97 56.13-81.94 72.52-130.7 2.46-7.37 4.92-14.54 5.33-15.98.61-1.84 13.93-2.46 57.36-2.46h56.54l-6.55 9.63z"/>
<path fill="#fff" d="M125.11 379.89c-12.09 6.15-12.09 5.74 7.17 102.23 9.63 48.76 18.64 91.37 19.87 94.44 1.23 3.28 5.33 7.38 9.01 9.01 5.53 2.87 7.58 2.87 12.91.61 5.53-2.25 9.22-7.99 25.81-41.18 10.86-21.31 20.08-38.72 20.49-38.72.61 0 9.63 17.41 20.28 38.51 16.59 33.19 20.28 39.13 25.61 41.38 7.58 3.07 17.41 0 20.9-6.56 1.02-2.05 10.24-44.86 20.28-95.26 18.03-90.14 18.44-91.57 14.75-97.51-4.51-7.99-12.91-10.86-21.1-7.58-3.28 1.43-6.96 4.3-8.19 6.56-1.02 2.05-7.58 31.14-14.14 64.74-6.76 33.39-12.7 61.66-13.11 62.89-.21 1.02-7.58-11.88-16.18-29.09s-17.41-32.16-19.67-33.39c-2.25-1.02-6.56-2.05-9.42-2.05-2.87 0-7.17 1.02-9.42 2.05-2.25 1.23-10.86 16.18-19.46 33.19-8.4 16.8-15.77 30.32-16.39 29.91-.41-.61-6.35-28.47-13.11-62.28-6.76-33.6-13.32-63.3-14.55-65.56-2.25-4.51-10.04-9.01-14.75-9.01-1.45.01-4.73 1.24-7.59 2.67zM402.08 382.35c-4.3 3.69-6.56 7.38-6.56 10.86 0 3.07 7.99 45.48 17.82 94.44 19.67 98.33 20.08 99.36 34.01 99.36 4.1 0 9.01-1.43 11.06-3.28 2.05-1.84 11.88-20.08 22.12-40.36 10.05-20.48 18.86-37.08 19.47-37.08s9.42 16.59 19.46 37.08c10.24 20.28 20.08 38.51 22.12 40.36 2.05 1.84 6.97 3.28 11.06 3.28 13.93 0 14.34-1.02 34.01-99.36 9.83-48.96 17.82-90.96 17.82-93.62 0-2.66-2.87-7.58-6.15-11.06-5.33-5.12-7.37-5.94-12.91-4.92-12.5 2.46-13.32 4.51-26.43 70.27-6.55 33.6-12.5 62.48-13.11 64.12-.82 1.84-6.97-8.6-15.57-25.61-7.99-15.77-16.18-30.73-18.64-33.39-4.71-5.12-16.59-6.15-22.13-1.84-1.84 1.43-10.24 16.39-18.85 33.19-9.01 18.23-15.77 29.5-16.59 27.66-.59-1.65-6.53-30.54-13.09-64.13-13.11-65.35-13.93-67.81-26.22-70.27-4.92-.82-7.58 0-12.7 4.3zM684.37 379.89c-12.09 6.15-12.09 5.74 7.17 102.23 9.63 48.76 18.64 91.37 19.87 94.44 1.23 3.28 5.33 7.38 9.01 9.01 5.74 2.87 7.58 2.87 13.11.61 5.53-2.25 9.01-7.78 26.22-42.2l19.87-39.74 20.08 39.74c18.44 37.08 20.49 39.95 26.84 42.2 9.01 2.87 18.03-1.23 21.3-9.63 1.23-3.07 10.24-45.68 19.87-94.44 15.77-78.87 17.41-89.11 14.96-94.03-5.12-10.86-19.46-13.52-27.86-5.12-2.66 2.66-6.97 20.28-15.57 63.1-6.35 32.57-12.5 61.46-13.32 64.32-1.42 4.52-3.47 1.44-17.2-26.01-8.6-17.21-17.41-32.16-19.67-33.39-2.25-1.02-6.55-2.05-9.42-2.05s-7.17 1.02-9.42 2.05c-2.25 1.23-10.86 16.18-19.46 33.19-8.4 16.8-15.77 30.32-16.39 29.91-.41-.61-6.35-28.47-13.11-62.28-6.76-33.6-12.91-62.89-13.52-64.74-1.23-3.89-10.86-9.83-15.57-9.83-1.44 0-4.92 1.23-7.79 2.66z"/>
</svg>