<svg xmlns="http://www.w3.org/2000/svg" width="512" height="512" viewBox="0 0 512 512"><path d="M384.645 256c0 70.942-57.702 128.655-128.655 128.655-70.942 0-128.655-57.712-128.655-128.655 0-70.912 57.723-128.635 128.655-128.635 70.963 0 128.655 57.713 128.655 128.635zM255.99 98.97c-86.558 0-157.02 70.42-157.02 157.03s70.462 157.04 157.02 157.04c86.58 0 157.06-70.44 157.06-157.04 0-86.61-70.48-157.03-157.06-157.03z"/><path d="M270.192 216.75V10.322h-28.395V216.74c4.485-1.607 9.196-2.63 14.203-2.63s9.707 1.023 14.192 2.64zM241.787 295.26v206.418h28.395V295.26c-4.485 1.608-9.195 2.642-14.203 2.642s-9.71-1.034-14.193-2.642zM216.73 241.808H4.61v28.375h212.12c-1.618-4.454-2.642-9.185-2.642-14.213 0-4.976 1.024-9.718 2.642-14.162zM507.392 241.808H295.25c1.618 4.444 2.642 9.175 2.642 14.172 0 5.018-1.024 9.758-2.642 14.213h212.142v-28.386z"/></svg>
