<svg xmlns="http://www.w3.org/2000/svg" viewBox="0 0 800 800"><path fill="#fff" d="M521.2 155.8c29.3 1.3 45.2 6.2 55.7 10.3 27.6 12 47 31.8 57 57 4 10.6 9 26.5 10.2 55.8 2 88.3 4 153.2 0 242.4-1.3 29.3-6.2 45.2-10.3 55.7-12 27.6-31.8 47-57 57-10.6 4-26.5 9-55.8 10.2-88.3 2-153.2 4-242.4 0-29.3-1.3-45.2-6.2-55.7-10.3-27.6-12-47-31.8-57-57-4-10.6-9-26.5-10.2-55.8-2-88.3-4-153.2 0-242.4 1.3-29.3 6.2-45.2 10.3-55.7 12-27.6 31.8-47 57-57 10.6-4 26.5-9 55.8-10.2m-2.5-54c-32 1.5-53.7 6.5-72.8 14-42 18-72 48-87.7 87.7-7.5 19-12.5 41-14 72.8-2 90-4 156.2 0 247.4 1.5 32 6.5 53.7 14 72.8 18 42 48 72 87.7 87.8 19 7.4 41 12.4 72.8 14 90 1.8 156.2 4 247.4 0 32-1.6 53.7-6.6 72.8-14 42-18.2 72-48 87.8-87.8 7.4-19 12.4-41 14-72.8 1.8-90 4-156.2 0-247.4-1.6-32-6.6-53.7-14-72.8-18.2-42-48-72-87.8-87.7-19-7.5-41-12.5-72.8-14"/><path fill="#fff" d="M400 246c-85 0-154 69-154 154s69 154 154 154 154-69 154-154-69-154-154-154m0 254c-55.2 0-100-44.8-100-100s44.8-100 100-100 100 44.8 100 100-44.8 100-100 100m196-260c0 19.7-16 36-36 36-19.7 0-36-16.3-36-36 0-20 16.3-36 36-36 20 0 36 16 36 36"/></svg>