<svg viewBox="0 0 1000 1000" xmlns="http://www.w3.org/2000/svg"><path fill="#292933" d="m780 587.5v175c0 43.4-15.4 80.5-46.2 111.3s-67.9 46.2-111.3 46.2h-455c-43.4 0-80.5-15.4-111.3-46.2s-46.2-67.9-46.2-111.3v-455c0-43.4 15.4-80.5 46.2-111.3s67.9-46.2 111.3-46.2h385c5.1 0 9.3 1.6 12.6 4.9s4.9 7.5 4.9 12.6v35c0 5.1-1.6 9.3-4.9 12.6s-7.5 4.9-12.6 4.9h-385c-24.1 0-44.7 8.6-61.8 25.7-17.1 17.2-25.7 37.8-25.7 61.8v455c0 24.1 8.6 44.7 25.7 61.8s37.7 25.7 61.8 25.7h455c24.1 0 44.7-8.6 61.8-25.7s25.7-37.7 25.7-61.8v-175c0-5.1 1.6-9.3 4.9-12.6s7.5-4.9 12.6-4.9h35c5.1 0 9.3 1.6 12.6 4.9s4.9 7.5 4.9 12.6zm210-472.5v280c0 9.5-3.5 17.7-10.4 24.6-6.9 7-15.1 10.4-24.6 10.4s-17.7-3.5-24.6-10.4l-96.3-96.3-356.6 356.7c-3.6 3.6-7.8 5.5-12.6 5.5s-9-1.8-12.6-5.5l-62.3-62.4c-3.6-3.6-5.5-7.8-5.5-12.6s1.8-9 5.5-12.6l356.6-356.6-96.3-96.3c-6.9-6.9-10.4-15.1-10.4-24.6s3.5-17.7 10.4-24.6 15.1-10.4 24.6-10.4h280c9.5 0 17.7 3.5 24.6 10.4 7 6.9 10.5 15.1 10.5 24.7z"/></svg>