<?xml version="1.0" standalone="no"?>
<!DOCTYPE svg PUBLIC "-//W3C//DTD SVG 20010904//EN"
 "http://www.w3.org/TR/2001/REC-SVG-20010904/DTD/svg10.dtd">
<svg version="1.0" xmlns="http://www.w3.org/2000/svg"
 width="557.000000pt" height="557.000000pt" viewBox="0 0 557.000000 557.000000"
 preserveAspectRatio="xMidYMid meet">
<metadata>
Created by potrace 1.11, written by Peter Selinger 2001-2013
</metadata>
<g transform="translate(0.000000,557.000000) scale(0.100000,-0.100000)"
fill="#000000" stroke="none">
<path d="M0 2785 l0 -2785 2785 0 2785 0 0 2785 0 2785 -2785 0 -2785 0 0
-2785z m2484 2328 c2 -10 10 -52 16 -93 37 -246 168 -440 405 -605 104 -72
158 -101 545 -297 462 -234 678 -376 944 -618 55 -50 161 -184 206 -261 284
-482 -20 -960 -855 -1341 -81 -37 -204 -88 -212 -88 -2 0 -3 7 -3 15 0 8 45
62 100 121 215 228 318 400 375 625 36 139 35 297 -1 429 -85 309 -331 607
-699 845 -356 230 -482 323 -627 462 -58 57 -112 103 -119 103 -32 0 27 -204
106 -361 80 -161 148 -253 395 -539 65 -74 144 -173 178 -219 230 -315 228
-577 -6 -911 -39 -56 -196 -255 -212 -270 -4 -3 -62 -72 -131 -155 -184 -221
-256 -328 -285 -424 -14 -47 -14 -61 1 -150 20 -117 11 -204 -31 -304 -59
-141 -134 -231 -269 -322 -250 -170 -509 -199 -750 -84 -218 103 -380 325
-430 588 -38 195 -2 340 131 527 58 82 185 199 253 234 144 71 295 84 451 37
114 -34 238 -87 321 -137 80 -49 105 -49 102 -3 -3 35 -6 32 147 145 110 81
276 242 344 332 70 94 99 146 133 236 25 68 28 87 27 205 0 116 -3 139 -28
215 -46 139 -143 309 -281 490 -175 231 -293 442 -354 631 -96 302 -76 593 62
902 26 58 42 71 51 40z"/>
<path d="M1702 1654 c-43 -34 -87 -123 -101 -205 -14 -85 -14 -283 0 -346 34
-148 166 -210 247 -117 45 53 152 269 152 310 0 113 -82 326 -142 368 -37 26
-117 21 -156 -10z"/>
<path d="M1330 1150 c-22 -53 5 -177 44 -202 33 -22 99 26 111 82 9 39 -24 93
-76 126 -50 31 -64 30 -79 -6z"/>
</g>
</svg>
